<?xml version="1.0" standalone="no"?><!DOCTYPE svg PUBLIC "-//W3C//DTD SVG 1.1//EN" "http://www.w3.org/Graphics/SVG/1.1/DTD/svg11.dtd"><svg t="1646496888985" class="icon" viewBox="0 0 1024 1024" version="1.1" xmlns="http://www.w3.org/2000/svg" p-id="2092" xmlns:xlink="http://www.w3.org/1999/xlink" width="200" height="200"><defs><style type="text/css"></style></defs><path d="M986.04032 182.58432h-243.66592v-46.3872c0-38.44608-31.12448-69.63712-69.57056-69.63712H347.99616c-38.44608 0-69.57056 31.19104-69.57056 69.63712v46.3872H34.816a34.78016 34.78016 0 0 0-34.816 34.816 34.816 34.816 0 0 0 34.816 34.816h104.3968v556.78464c0 76.89216 62.31552 139.2128 139.20768 139.2128h463.95392c76.89216 0 139.2128-62.31552 139.2128-139.2128V252.21632h104.45312c19.18976 0 34.75456-15.62624 34.75456-34.816 0-19.25632-15.5648-34.816-34.75456-34.816z m-638.04416-46.3872h324.80768v46.3872H347.99616v-46.3872z m464.01536 533.59616v139.20768c0 38.38464-31.24736 69.63712-69.63712 69.63712H278.42048c-38.38464 0-69.63712-31.25248-69.63712-69.63712V252.21632h603.22816v417.57696z" p-id="2093" fill="#cdcdcd"></path><path d="M347.99616 391.42912a23.168 23.168 0 0 0-23.1936 23.18848v348.00128c0 12.8 10.39872 23.1936 23.1936 23.1936s23.1936-10.3936 23.1936-23.1936V414.6176a23.168 23.168 0 0 0-23.1936-23.18848zM510.39744 391.42912a23.16288 23.16288 0 0 0-23.18848 23.18848v348.00128c0 12.8 10.3936 23.1936 23.18848 23.1936s23.1936-10.3936 23.1936-23.1936V414.6176a23.168 23.168 0 0 0-23.1936-23.18848zM672.80384 391.42912c-12.8 0-23.1936 10.33216-23.1936 23.18848v348.00128c0 12.8 10.3936 23.1936 23.1936 23.1936a23.20384 23.20384 0 0 0 23.18848-23.1936V414.6176a23.16288 23.16288 0 0 0-23.18848-23.18848z" p-id="2094" fill="#cdcdcd"></path></svg>