<?xml version="1.0" standalone="no"?><!DOCTYPE svg PUBLIC "-//W3C//DTD SVG 1.1//EN" "http://www.w3.org/Graphics/SVG/1.1/DTD/svg11.dtd"><svg t="1646555884803" class="icon" viewBox="0 0 1024 1024" version="1.1" xmlns="http://www.w3.org/2000/svg" p-id="2907" xmlns:xlink="http://www.w3.org/1999/xlink" width="200" height="200"><defs><style type="text/css"></style></defs><path d="M186.885854 245.688312l652.229799 0 0 752.619135-652.229799 0 0-752.619135Z" fill="#FFFFFF" p-id="2908"></path><path d="M272.780612 821.756174l569.356925 0 0 176.564354-569.356925 0 0-176.564354Z" fill="#65A347" p-id="2909"></path><path d="M272.780612 821.756174l481.421414 0 0 176.564354-481.421414 0 0-176.564354Z" fill="#9BD37A" p-id="2910"></path><path d="M272.780612 239.029702l569.356925 0 0 582.726472-569.356925 0 0-582.726472Z" fill="#FFAC1F" p-id="2911"></path><path d="M272.780612 239.029702l481.421414 0 0 582.726472-481.421414 0 0-582.726472Z" fill="#FECD57" p-id="2912"></path><path d="M557.544106 1024H243.791459A82.715894 82.715894 0 0 1 161.167137 941.38876V300.958698a82.728975 82.728975 0 0 1 82.624322-82.624321h536.430164a82.702812 82.702812 0 0 1 82.61124 82.624321v110.893979a20.695326 20.695326 0 0 1-41.390651 0v-110.893979a41.272915 41.272915 0 0 0-41.207507-41.23367H243.791459a41.272915 41.272915 0 0 0-41.233671 41.23367v640.430062a41.272915 41.272915 0 0 0 41.233671 41.220589H557.544106a20.695326 20.695326 0 0 1 0 41.390651zM780.221623 1024H696.341454a20.695326 20.695326 0 0 1 0-41.390651h83.880169a41.272915 41.272915 0 0 0 41.207507-41.220589V552.324489a20.695326 20.695326 0 0 1 41.390651 0v389.05119a82.702812 82.702812 0 0 1-82.598158 82.624321z" fill="#231815" p-id="2913"></path><path d="M653.407157 432.534921a20.695326 20.695326 0 0 1-20.695326-20.695326V162.095941a120.70529 120.70529 0 0 0-241.397499 0v249.743654a20.695326 20.695326 0 1 1-41.390651 0V162.095941a162.095941 162.095941 0 0 1 324.191883 0v249.743654a20.695326 20.695326 0 0 1-20.708407 20.695326zM842.137537 842.464581H181.862463a20.695326 20.695326 0 1 1 0-41.390651h660.275074a20.695326 20.695326 0 0 1 0 41.390651z" fill="#231815" p-id="2914"></path></svg>