<?xml version="1.0" standalone="no"?><!DOCTYPE svg PUBLIC "-//W3C//DTD SVG 1.1//EN" "http://www.w3.org/Graphics/SVG/1.1/DTD/svg11.dtd"><svg t="1646483481656" class="icon" viewBox="0 0 1024 1024" version="1.1" xmlns="http://www.w3.org/2000/svg" p-id="4550" xmlns:xlink="http://www.w3.org/1999/xlink" width="200" height="200"><defs><style type="text/css"></style></defs><path d="M735.624758 255.988985l-118.82046 0.209227-109.077043-139.27138 61.968134-72.10539z" fill="#FFFFFF" p-id="4551"></path><path d="M616.804298 286.966898a30.756378 30.756378 0 0 1-24.22111-11.794663l-109.077042-139.267278a30.776891 30.776891 0 0 1 0.89024-39.031103l61.964031-72.101288a30.678431 30.678431 0 0 1 24.015985-10.707502 30.739968 30.739968 0 0 1 23.511379 11.749535l165.933472 211.167543a30.768686 30.768686 0 0 1-24.134958 49.779631l-118.82046 0.209227-0.061537-0.004102z m-69.282876-169.133415l84.248765 107.571428 40.635178-0.073845-103.772522-132.063302-21.111421 24.565719z" fill="#6E6E96" p-id="4552"></path><path d="M276.108793 260.354036l110.07805-0.31179 179.488104-218.055625-111.115981-0.299482z" fill="#FFFFFF" p-id="4553"></path><path d="M276.108793 291.122722a30.768686 30.768686 0 0 1-23.839578-50.218598L430.719388 22.233124a30.764583 30.764583 0 0 1 23.839578-11.318774h0.086152l111.115981 0.303585a30.772788 30.772788 0 1 1 23.675478 50.329365l-179.488103 218.047421a30.735866 30.735866 0 0 1-23.671376 11.212109l-110.078051 0.311789a0.664604 0.664604 0 0 1-0.090254 0.004103z m193.022223-218.629975L341.084052 229.400738l30.543049-0.086153 129.015151-156.735686-31.511236-0.086152z" fill="#6E6E96" p-id="4554"></path><path d="M161.801073 259.722252a22.973952 22.973952 0 0 0-22.978054 22.95344l-0.639989 566.742784c-1.210235 5.025552-23.056002 95.247544-23.056002 95.247544a22.990362 22.990362 0 0 0 22.329861 28.385139h734.046488a22.994465 22.994465 0 0 0 22.978055-22.973953 23.425226 23.425226 0 0 0-0.562041-5.070679l-21.575003-95.350106c0.008205-5.156832 1.624587-566.919192 1.624587-566.943807a22.982157 22.982157 0 0 0-22.982157-22.973952l-689.185745-0.01641z" fill="#EB6E80" p-id="4555"></path><path d="M740.149806 714.745989c22.563703 0 41.078247-18.461212 41.143887-41.024914l1.10357-381.297864a19.798624 19.798624 0 0 0-5.768103-13.948471l-3.708652-3.716857c-5.657336-1.148698-28.75026-2.092271-51.313963-2.09227H169.977339s-4.442998 1.981503-9.874697 4.41428c-5.431699 2.432777-9.907517 33.779915-9.932132 56.343618l-0.385634 340.297564c-0.024615 22.563703 18.416084 41.024915 40.979787 41.024914h549.385143zM790.040205 819.96669c-4.976322-22.005764-9.050096-40.343901-9.045994-40.750048 0-0.402044-18.453007-2.933281-41.01671-2.933281H190.699023c-22.563703 0-41.024915 0.734346-41.024915 1.624587 0 0.898446-4.344538 19.782214-9.653162 41.718235 0 0 4.381461-18.100192-0.783576 3.228661-5.165037 21.337058-9.640855 40.192109-9.948542 41.898745v1.550742a19.774009 19.774009 0 0 0 4.233772 12.221322l3.745574 4.75889c6.481936 1.530229 30.243567 2.781489 52.80727 2.781489h549.167711c22.563703 0 46.284309-1.230747 52.712913-2.736361l3.749677-4.693251a19.769906 19.769906 0 0 0 4.328129-12.332089v-1.452282c-0.266662-1.604074-4.447101-20.426305-9.300348-41.84131-4.853247-21.4068-0.693321-3.044049-0.693321-3.044049z" fill="#FF788B" p-id="4556"></path><path d="M871.503377 1003.819845H137.456889a53.426746 53.426746 0 0 1-42.23515-20.512458 53.972378 53.972378 0 0 1-11.511591-33.238385c0-4.237874 0.508709-8.488055 1.509717-12.631572l22.198582-91.707094 0.635886-563.091567c0.03282-29.603578 24.143162-53.689306 53.74674-53.689305l689.198052 0.004102a53.414439 53.414439 0 0 1 38.050608 15.786387 53.455464 53.455464 0 0 1 15.69203 37.960354l-0.069742 23.798553-1.554844 539.756595 20.807836 91.949141c0.882036 4.008134 1.312797 7.950628 1.312797 11.868508 0 12.147477-4.184541 24.05701-11.761843 33.554278a53.430849 53.430849 0 0 1-41.97259 20.192463z m-724.143074-61.537372h714.399657l-19.429399-85.869249-0.763064-3.37635 0.008205-3.462503c0.008205-4.525048 1.255362-436.398426 1.563049-543.256021l0.045128-15.827412H169.5835l-0.631784 558.952153v3.647115l-0.853318 3.544553-20.738095 85.647714z" fill="#6E6E96" p-id="4557"></path><path d="M735.624758 882.948139H161.156982c-16.99252 0-30.768686-13.772064-30.768686-30.768686s13.776166-30.768686 30.768686-30.768686h574.467776c16.996622 0 30.768686 13.772064 30.768686 30.768686s-13.772064 30.768686-30.768686 30.768686z" fill="#6E6E96" p-id="4558"></path><path d="M307.931819 605.816636c-6.744496 0-13.168998-0.410249-19.273505-1.21844-6.104507-0.812293-11.310569-1.747661-15.614082-2.793797v-29.829215a109.741646 109.741646 0 0 0 15.437675 3.228661c2.966101 0.410249 5.956818 0.726141 8.980354 0.95588 3.023536 0.237945 5.870665 0.348712 8.549592 0.348712 3.601987 0 6.481936-0.172305 8.631642-0.521016 2.149706-0.348712 3.807112-0.902548 4.972219-1.657407 1.161005-0.754858 1.919966-1.772276 2.268678-3.052253 0.348712-1.279977 0.525119-2.847129 0.525119-4.709661 0-1.279977-0.205125-2.440982-0.611271-3.487117-0.410249-1.050238-1.222542-2.006118-2.440982-2.879949-1.222542-0.873831-2.966101-1.743559-5.23478-2.61739s-5.320931-1.772276-9.15676-2.703542c-6.629626-1.509717-12.065427-3.228661-16.311507-5.144524-4.246079-1.919966-7.589609-4.274796-10.030591-7.068593s-4.127106-6.071687-5.058372-9.854184c-0.935368-3.778395-1.394847-8.401902-1.394847-13.866421 0-7.093208 1.10357-13.05823 3.314813-17.882761 2.20714-4.82453 5.378366-8.721897 9.505473-11.687998 4.127106-2.966101 9.128043-5.058372 15.002811-6.280914 5.870665-1.222542 12.414139-1.833814 19.626319-1.833814 7.556789 0 13.837704 0.434864 18.838641 1.308695 5.000937 0.873831 9.185478 1.891249 12.561829 3.052253v27.736945c-1.279977-0.463582-3.109689-0.931266-5.493236-1.394847a171.730292 171.730292 0 0 0-7.761914-1.308695 193.063248 193.063248 0 0 0-8.54549-1.046135 80.954464 80.954464 0 0 0-8.024473-0.434864c-5.583491 0-9.56701 0.672809-11.950558 2.006118-2.38765 1.337412-3.577373 3.462503-3.577372 6.367067 0 1.39895 0.201022 2.559955 0.611271 3.49122 0.406147 0.931266 1.247157 1.772276 2.531237 2.527135 1.279977 0.758961 3.080971 1.485102 5.407084 2.182525a209.227064 209.227064 0 0 0 9.070608 2.440983c7.556789 1.977401 13.579247 4.131209 18.055065 6.453219 4.475818 2.326113 7.876784 5.00504 10.206999 8.024473 2.32201 3.023536 3.839932 6.572191 4.533253 10.641863 0.697424 4.073774 1.046135 8.840869 1.046135 14.305388 0 6.047072-0.812293 11.425439-2.440982 16.135099a27.265158 27.265158 0 0 1-8.110626 11.950557c-3.782497 3.257378-8.808049 5.755796-15.088963 7.499355-6.285017 1.747661-14.133083 2.61739-23.556506 2.617389zM485.516366 483.008554v121.064523h-34.715282v-49.718094h-38.374705v49.718094H377.711096v-121.064523h34.715283v42.391045h38.374705v-42.391045h34.715282zM562.446286 605.816636c-8.955739 0-16.980212-0.902548-24.069317-2.699439-7.09731-1.800994-13.082845-5.033757-17.973015-9.68188-4.877862-4.652225-8.607027-11.019292-11.16288-19.1012-2.559955-8.081908-3.839932-18.346342-3.839932-30.789199s1.279977-22.678573 3.839932-30.703046c2.555852-8.024473 6.280914-14.39154 11.16288-19.1012 4.886067-4.70966 10.871602-7.962936 17.973015-9.768032 7.093208-1.800994 15.117681-2.703542 24.069317-2.703542 9.070609 0 17.123799 0.902548 24.163675 2.703542 7.035773 1.805096 12.996693 5.058372 17.878658 9.768032s8.607027 11.076727 11.166981 19.1012c2.555852 8.024473 3.839932 18.260189 3.839932 30.703046s-1.279977 22.70729-3.839932 30.789199c-2.559955 8.086011-6.280914 14.448975-11.166981 19.1012s-10.846987 7.880886-17.878658 9.68188c-7.039875 1.800994-15.093066 2.699439-24.163675 2.699439z m0-28.606673c4.188644 0 7.589609-0.521016 10.206999-1.567152 2.61739-1.050238 4.705558-2.879949 6.276812-5.497338s2.646107-6.07579 3.228661-10.379303c0.582554-4.299411 0.869728-9.706495 0.869728-16.221252 0-6.629626-0.287174-12.126965-0.869728-16.487913-0.586656-4.356846-1.657407-7.852169-3.228661-10.465456-1.571254-2.61739-3.663525-4.475818-6.276812-5.58349-2.621492-1.10357-6.018355-1.657407-10.206999-1.657407-4.184541 0-7.589609 0.553836-10.202896 1.657407-2.61739 1.107673-4.685045 2.966101-6.19066 5.58349-1.513819 2.613287-2.564057 6.104507-3.142508 10.465456-0.586656 4.356846-0.873831 9.854184-0.873831 16.487913 0 6.514756 0.287174 11.92184 0.873831 16.221252 0.578451 4.303514 1.624587 7.766016 3.142508 10.379303 1.505614 2.61739 3.57327 4.447101 6.19066 5.497338 2.61739 1.046135 6.022457 1.567152 10.202896 1.567152zM639.380308 483.008554h47.096602c9.53419 0 17.505331 0.783576 23.901116 2.354831 6.395784 1.567152 11.536206 4.073774 15.437675 7.499354 3.893264 3.429683 6.658344 7.880886 8.287033 13.345405 1.628689 5.468621 2.445085 12.098247 2.445085 19.884776 0 8.492157-0.902548 15.618185-2.703542 21.369878-1.800994 5.755796-4.70966 10.379303-8.721897 13.870523-4.016339 3.49122-9.189581 5.99374-15.523828 7.499355-6.342452 1.513819-14.046931 2.268678-23.117539 2.268677h-12.385422v32.971724h-34.715283v-121.064523z m42.042333 60.536364c7.208077 0 12.295167-1.161005 15.265371-3.49122 2.966101-2.32201 4.447101-6.687061 4.4471-13.082845 0-6.744496-1.513819-11.306466-4.533253-13.694117-3.023536-2.383548-8.086011-3.577373-15.175116-3.577372h-7.327049v33.845554h7.322947z" fill="#FFFFFF" p-id="4559"></path></svg>